<svg id="Layer_1" data-name="Layer 1" xmlns="http://www.w3.org/2000/svg" viewBox="0 0 136 135.5"><defs><style>.cls-1{fill:#fff;stroke:#0e2974;stroke-miterlimit:10;}.cls-2{fill:#0e2974;}</style></defs><title>Untitled-1</title><path class="cls-1" d="M135.5,68a67.5,67.5,0,1,0-78,66.68V87.51H40.31V68H57.45V53.13c0-16.92,10.08-26.26,25.5-26.26a103.8,103.8,0,0,1,15.11,1.32V44.8H89.55c-8.38,0-11,5.2-11,10.54V68H97.27l-3,19.51H78.55v47.17A67.52,67.52,0,0,0,135.5,68Z"/><path class="cls-2" d="M94.27,87.51l3-19.51H78.55V55.34c0-5.34,2.61-10.54,11-10.54h8.51V28.19a103.8,103.8,0,0,0-15.11-1.32c-15.42,0-25.5,9.34-25.5,26.26V68H40.31V87.51H57.45v47.17a68.21,68.21,0,0,0,21.09,0V87.51Z"/></svg>