<svg id="Layer_1" data-name="Layer 1" xmlns="http://www.w3.org/2000/svg" viewBox="0 0 90 90"><title>icon-linkedin-blue</title><g id="Symbols"><g id="Desktop_Footer" data-name="Desktop/Footer"><g id="Group"><g id="Footer---Light"><g id="Social-Icons"><g id="Linkedin"><circle id="Oval" cx="45" cy="45" r="44" style="fill:none;stroke:#14477d;stroke-width:2px"/><path id="Page-1" d="M69.4132,63.7991H60.1449V48.1719c0-2.4756-2.935-4.6418-5.4065-4.6418s-5.4065,2.1662-5.4065,4.6418V63.7991H40.0636V35.9486h9.2683v4.3323c1.5447-2.4756,5.7154-4.3323,8.4959-4.3323,5.87,0,11.5854,4.9512,11.5854,10.9855ZM30.1774,31.1521a5.5424,5.5424,0,0,1-5.561-5.57,5.676,5.676,0,0,1,5.561-5.7248,5.6481,5.6481,0,0,1,0,11.2949Zm-5.561,32.647h9.2683V35.9486H24.6165Z" transform="translate(-0.5689)" style="fill:#14477d"/></g></g></g></g></g></g></svg>