<svg id="Layer_1" data-name="Layer 1" xmlns="http://www.w3.org/2000/svg" viewBox="0 0 136 136"><defs><style>.cls-1{fill:#fff;stroke:#0e2974;stroke-miterlimit:10;}.cls-2{fill:#0e2974;}</style></defs><title>Untitled-1</title><circle class="cls-1" cx="68" cy="68" r="67.5"/><path class="cls-2" d="M54.36,106.88c33,0,51-27.31,51-51q0-1.16-.05-2.32a36.47,36.47,0,0,0,8.94-9.28A35.78,35.78,0,0,1,104,47.1a18,18,0,0,0,7.88-9.91,35.92,35.92,0,0,1-11.38,4.35A17.94,17.94,0,0,0,69.91,57.88,50.89,50.89,0,0,1,33,39.16a17.94,17.94,0,0,0,5.55,23.93,17.79,17.79,0,0,1-8.12-2.24c0,.07,0,.15,0,.23A17.93,17.93,0,0,0,44.77,78.64a17.9,17.9,0,0,1-8.09.31A17.94,17.94,0,0,0,53.42,91.4a36,36,0,0,1-22.26,7.67,36.48,36.48,0,0,1-4.28-.25,50.74,50.74,0,0,0,27.47,8.05"/></svg>