<svg id="Layer_1" data-name="Layer 1" xmlns="http://www.w3.org/2000/svg" viewBox="0 0 136 136"><defs><style>.cls-1{fill:#fff;stroke:#0e2974;stroke-miterlimit:10;}.cls-2{fill:#0e2974;fill-rule:evenodd;}</style></defs><title>Untitled-1</title><circle class="cls-1" cx="68" cy="68" r="67.5"/><g id="WA_Logo" data-name="WA Logo"><path class="cls-2" d="M100.47,36.36A42.82,42.82,0,0,0,33.07,88L27,110.19l22.7-6a42.8,42.8,0,0,0,20.46,5.21h0a42.82,42.82,0,0,0,30.29-73.09ZM70.18,102.22h0a35.54,35.54,0,0,1-18.11-5l-1.3-.77L37.28,100l3.6-13.13L40,85.55a35.59,35.59,0,1,1,30.15,16.67ZM89.7,75.57c-1.07-.54-6.33-3.12-7.31-3.48s-1.69-.54-2.41.54-2.76,3.48-3.39,4.19-1.25.8-2.32.27a29.22,29.22,0,0,1-8.6-5.31,32.24,32.24,0,0,1-6-7.41c-.62-1.07-.07-1.65.47-2.18s1.07-1.25,1.6-1.87a7.3,7.3,0,0,0,1.07-1.78,2,2,0,0,0-.09-1.87c-.27-.54-2.41-5.8-3.3-7.94s-1.75-1.8-2.41-1.84-1.34,0-2.05,0a3.93,3.93,0,0,0-2.85,1.34,12,12,0,0,0-3.74,8.92c0,5.26,3.83,10.35,4.37,11.06s7.54,11.52,18.28,16.15a61.6,61.6,0,0,0,6.1,2.25,14.68,14.68,0,0,0,6.74.42c2.06-.31,6.33-2.59,7.22-5.09s.89-4.64.62-5.09S90.77,76.11,89.7,75.57Z"/></g></svg>