<?xml version="1.0" ?><svg enable-background="new 0 0 32 32" version="1.1" viewBox="0 0 32 32" xml:space="preserve" xmlns="http://www.w3.org/2000/svg" xmlns:xlink="http://www.w3.org/1999/xlink"><g id="OUTLINE_copy"><g><path d="M24.514,12.295c0,0-0.169-1.278-0.69-1.841c-0.661-0.738-1.401-0.742-1.741-0.784    c-2.432-0.188-6.079-0.188-6.079-0.188h-0.008c0,0-3.647,0-6.079,0.188c-0.339,0.042-1.079,0.046-1.741,0.784    c-0.52,0.563-0.69,1.841-0.69,1.841s-0.174,1.5-0.174,2.999V16.7c0,1.501,0.174,3,0.174,3s0.169,1.278,0.69,1.839    c0.662,0.738,1.529,0.715,1.916,0.792C11.482,22.474,16,22.518,16,22.518s3.651-0.006,6.083-0.193    c0.339-0.044,1.08-0.048,1.741-0.785c0.52-0.562,0.69-1.839,0.69-1.839s0.174-1.5,0.174-3v-1.406    C24.688,13.795,24.514,12.295,24.514,12.295z M13.83,19.259v-6.518L19.262,16L13.83,19.259z" fill="#0e2974"/></g><g><g id="Shopping_10_111_"><g><g><g><g><path d="M16,1c8.271,0,15,6.729,15,15s-6.729,15-15,15S1,24.271,1,16S7.729,1,16,1 M16,0         C7.164,0,0,7.164,0,16s7.164,16,16,16s16-7.163,16-16S24.836,0,16,0L16,0z" fill="#0e2974"/></g></g></g></g></g></g></g></svg>